# Blender v3.1.2 OBJ File: ''
# www.blender.org
o Cube.005_Cube.006
v -0.422130 0.525561 -0.172801
v 0.038461 -0.020556 0.687527
v 0.021798 -0.218151 -0.601992
v 0.536328 0.406013 -0.034830
v 0.204005 -0.635647 -0.120325
v -0.501897 -0.314085 0.177460
vt 0.568811 0.163639
vt 0.568425 0.504692
vt 0.459926 0.377244
vt 0.606621 0.615811
vt 0.299084 0.607715
vt 0.317156 0.731734
vt 0.143419 0.662942
vt 0.139004 0.521641
vt 0.125000 0.543689
vt 0.434998 0.085900
vt 0.494847 0.860861
vt 0.588125 0.011454
vt 0.813852 0.604439
vt 0.749166 0.739078
vn -0.6040 0.7605 -0.2385
vn 0.8153 0.5776 -0.0415
vn 0.0079 -0.2393 -0.9709
vn 0.3818 -0.9183 -0.1049
vn 0.1072 0.0146 0.9941
vn -0.8504 -0.4688 0.2388
s 1
f 1/1/1 4/2/2 3/3/3
f 3/3/3 4/4/2 5/5/4
f 2/6/5 6/7/6 5/5/4
f 3/8/3 5/5/4 6/9/6
f 1/1/1 3/3/3 6/10/6
f 4/4/2 2/11/5 5/5/4
f 2/12/5 1/1/1 6/10/6
f 1/13/1 2/14/5 4/4/2
