# Blender v2.92.0 OBJ File: ''
# www.blender.org
mtllib firewhat_1.mtl
o Cube.002
v 0.885652 -0.417693 -0.917010
v -0.884630 -0.417693 0.898373
v -0.884630 -0.417693 -0.917010
v -0.147593 1.178827 -0.176681
v 0.148615 1.178827 0.158045
v 0.148615 1.178827 -0.176681
v 0.744031 0.449138 -0.772928
v 0.885652 -0.417693 0.898373
v -0.743008 0.449138 -0.772928
v -0.743008 0.449138 0.754292
v 0.744031 0.449138 0.754292
v -0.147593 1.178827 0.158045
vt 0.625000 0.000000
vt 0.375000 0.250000
vt 0.375000 0.000000
vt 0.514654 0.857605
vt 0.485346 0.892395
vt 0.485346 0.857605
vt 0.256785 0.500000
vt 0.125000 0.750000
vt 0.125000 0.500000
vt 0.506785 0.250000
vt 0.375000 0.500000
vt 0.375000 0.250000
vt 0.506785 0.500000
vt 0.375000 0.750000
vt 0.375000 0.500000
vt 0.375000 0.750000
vt 0.625000 1.000000
vt 0.375000 1.000000
vt 0.625000 0.360346
vt 0.506785 0.500000
vt 0.625000 0.642395
vt 0.625000 0.607605
vt 0.756785 0.500000
vt 0.625000 0.750000
vt 0.625000 0.500000
vt 0.625000 0.250000
vt 0.514654 0.892395
vt 0.256785 0.750000
vt 0.506785 0.750000
vt 0.625000 0.389654
vt 0.756785 0.750000
vn 0.0000 -1.0000 -0.0000
vn 0.0000 1.0000 0.0000
vn 0.9869 0.1612 0.0000
vn 0.0000 0.1640 -0.9865
vn -0.9869 0.1612 0.0000
vn 0.7748 0.6322 0.0000
vn 0.0000 0.6327 0.7744
vn 0.0000 0.6327 -0.7744
vn -0.7748 0.6322 0.0000
vn 0.0000 0.1640 0.9865
usemtl Default_OBJ.001
s 1
f 1/1/1 2/2/1 3/3/1
f 4/4/2 5/5/2 6/6/2
f 7/7/3 8/8/3 1/9/3
f 9/10/4 1/11/4 3/12/4
f 10/13/5 3/14/5 2/15/5
f 5/5/6 7/16/6 6/6/6
f 5/5/7 10/17/7 11/18/7
f 4/19/8 7/20/8 9/10/8
f 4/21/9 10/13/9 12/22/9
f 11/23/10 2/24/10 8/25/10
f 1/1/1 8/26/1 2/2/1
f 4/4/2 12/27/2 5/5/2
f 7/7/3 11/28/3 8/8/3
f 9/10/4 7/20/4 1/11/4
f 10/13/5 9/29/5 3/14/5
f 5/5/6 11/18/6 7/16/6
f 5/5/7 12/27/7 10/17/7
f 4/19/8 6/30/8 7/20/8
f 4/21/9 9/29/9 10/13/9
f 11/23/10 10/31/10 2/24/10
