# Blender v3.1.2 OBJ File: ''
# www.blender.org
o Cube
v 1.000000 1.000000 -1.000000
v 1.000000 -1.000000 -1.000000
v 1.000000 1.000000 1.000000
v 1.000000 -1.000000 1.000000
v -1.000000 1.000000 -1.000000
v -1.000000 -1.000000 -1.000000
v -1.000000 1.000000 1.000000
v -1.000000 -1.000000 1.000000
vt 0.499295 0.999080
vt 0.250726 0.665196
vt 0.499398 0.665196
vt 0.000000 0.334000
vt 0.249989 0.334000
vt 0.999513 0.665196
vt 0.750306 0.333434
vt 0.999924 0.333415
vt 0.500089 0.334000
vt 0.250000 0.000000
vt 0.500000 0.000000
vt 0.499295 0.665120
vt 0.250099 0.333447
vt 0.500089 0.333426
vt 0.749515 0.665196
vt 0.250733 0.999080
vt 0.000035 0.665196
vt 0.749735 0.665196
vt 0.250209 0.333447
vt 0.250596 0.665196
vn 0.0000 1.0000 0.0000
vn 0.0000 0.0000 1.0000
vn -1.0000 0.0000 0.0000
vn 0.0000 -1.0000 0.0000
vn 1.0000 0.0000 0.0000
vn 0.0000 0.0000 -1.0000
s off
f 5/1/1 3/2/1 1/3/1
f 3/2/2 8/4/2 4/5/2
f 7/6/3 6/7/3 8/8/3
f 2/9/4 8/10/4 6/11/4
f 1/12/5 4/13/5 2/14/5
f 5/15/6 2/14/6 6/7/6
f 5/1/1 7/16/1 3/2/1
f 3/2/2 7/17/2 8/4/2
f 7/6/3 5/18/3 6/7/3
f 2/9/4 4/19/4 8/10/4
f 1/12/5 3/20/5 4/13/5
f 5/15/6 1/3/6 2/14/6
