# Blender v3.1.2 OBJ File: ''
# www.blender.org
o Slime_Mesh.001
v -0.101600 -0.101600 -0.101600
v 0.101600 -0.101600 -0.101600
v -0.101600 0.101600 -0.101600
v 0.101600 0.101600 -0.101600
v -0.101600 -0.101600 0.101600
v 0.101600 -0.101600 0.101600
v -0.101600 0.101600 0.101600
v 0.101600 0.101600 0.101600
vt 0.500000 0.750000
vt 0.500000 0.875000
vt 0.375000 0.875000
vt 0.375000 0.750000
vt 0.125000 0.750000
vt 0.250000 0.750000
vt 0.250000 0.875000
vt 0.125000 0.875000
vt 0.250000 1.000000
vt 0.375000 1.000000
vt 0.375000 0.875000
vt 0.250000 0.875000
vt 0.250000 1.000000
vt 0.125000 1.000000
vt 0.000000 0.875000
vt 0.000000 0.750000
vn 0.0000 0.0000 -1.0000
vn 0.0000 -0.0000 1.0000
vn 0.0000 -1.0000 -0.0000
vn 1.0000 0.0000 0.0000
vn 0.0000 1.0000 0.0000
vn -1.0000 0.0000 0.0000
s 1
f 1/1/1 3/2/1 4/3/1
f 4/3/1 2/4/1 1/1/1
f 5/5/2 6/6/2 8/7/2
f 8/7/2 7/8/2 5/5/2
f 1/9/3 2/10/3 6/11/3
f 6/11/3 5/12/3 1/9/3
f 2/4/4 4/3/4 8/7/4
f 8/7/4 6/6/4 2/4/4
f 4/13/5 3/14/5 7/8/5
f 7/8/5 8/7/5 4/13/5
f 3/15/6 1/16/6 5/5/6
f 5/5/6 7/8/6 3/15/6
o Slime001_Mesh.002
v -0.076200 -0.076200 -0.076200
v 0.076200 -0.076200 -0.076200
v -0.076200 0.076200 -0.076200
v 0.076200 0.076200 -0.076200
v -0.076200 -0.076200 0.076200
v 0.076200 -0.076200 0.076200
v -0.076200 0.076200 0.076200
v 0.076200 0.076200 0.076200
vt 0.375000 0.562500
vt 0.375000 0.656334
vt 0.281172 0.656334
vt 0.281172 0.562500
vt 0.093710 0.562500
vt 0.187500 0.562500
vt 0.187500 0.656334
vt 0.093710 0.656334
vt 0.187500 0.750000
vt 0.281172 0.750000
vt 0.281172 0.656334
vt 0.187500 0.656334
vt 0.187500 0.750000
vt 0.093710 0.750000
vt 0.000000 0.656334
vt 0.000000 0.562500
vn 0.0000 0.0000 -1.0000
vn 0.0000 -0.0000 1.0000
vn 0.0000 -1.0000 -0.0000
vn 1.0000 -0.0000 0.0000
vn 0.0000 1.0000 0.0000
vn -1.0000 0.0000 0.0000
s 1
f 9/17/7 11/18/7 12/19/7
f 12/19/7 10/20/7 9/17/7
f 13/21/8 14/22/8 16/23/8
f 16/23/8 15/24/8 13/21/8
f 9/25/9 10/26/9 14/27/9
f 14/27/9 13/28/9 9/25/9
f 10/20/10 12/19/10 16/23/10
f 16/23/10 14/22/10 10/20/10
f 12/29/11 11/30/11 15/24/11
f 15/24/11 16/23/11 12/29/11
f 11/31/12 9/32/12 13/21/12
f 13/21/12 15/24/12 11/31/12
o Box001_Mesh.003
v -0.082550 -0.000000 0.031750
v -0.031750 -0.000000 0.031750
v -0.082550 0.050800 0.031750
v -0.031750 0.050800 0.031750
v -0.082550 -0.000000 0.082550
v -0.031750 -0.000000 0.082550
v -0.082550 0.050800 0.082550
v -0.031750 0.050800 0.082550
vt 0.625000 0.968720
vt 0.593652 0.937500
vt 0.625000 0.937500
vt 0.562500 0.937500
vt 0.531255 0.968720
vt 0.531255 0.937500
vt 0.593652 1.000000
vt 0.562500 0.968720
vt 0.562500 1.000000
vt 0.593652 0.968720
vt 0.531255 1.000000
vt 0.562500 0.968720
vt 0.562500 1.000000
vt 0.500000 0.937500
vt 0.500000 0.968720
vt 0.593652 0.968720
vn 0.0000 0.0000 -1.0000
vn 0.0000 -0.0000 1.0000
vn 0.0000 -1.0000 -0.0000
vn 1.0000 -0.0000 0.0000
vn 0.0000 1.0000 0.0000
vn -1.0000 0.0000 0.0000
s 1
f 19/33/13 18/34/13 17/35/13
f 22/36/14 23/37/14 21/38/14
f 18/39/15 21/40/15 17/41/15
f 20/42/16 22/36/16 18/34/16
f 19/43/17 24/44/17 20/45/17
f 17/46/18 23/37/18 19/47/18
f 19/33/13 20/42/13 18/34/13
f 22/36/14 24/44/14 23/37/14
f 18/39/15 22/48/15 21/40/15
f 20/42/16 24/44/16 22/36/16
f 19/43/17 23/37/17 24/44/17
f 17/46/18 21/38/18 23/37/18
o Box003_Mesh.004
v 0.000000 -0.050800 0.055880
v 0.025400 -0.050800 0.055880
v 0.000000 -0.025400 0.055880
v 0.025400 -0.025400 0.055880
v 0.000000 -0.050800 0.081280
v 0.025400 -0.050800 0.081280
v 0.000000 -0.025400 0.081280
v 0.025400 -0.025400 0.081280
vt 0.562493 0.843804
vt 0.562493 0.859368
vt 0.546816 0.859368
vt 0.546816 0.843804
vt 0.515698 0.843804
vt 0.531484 0.843804
vt 0.531484 0.859368
vt 0.515698 0.859368
vt 0.531484 0.875000
vt 0.546816 0.875000
vt 0.546816 0.859368
vt 0.531484 0.859368
vt 0.531484 0.875000
vt 0.515698 0.875000
vt 0.500000 0.859368
vt 0.500000 0.843804
vn 0.0000 0.0000 -1.0000
vn 0.0000 -0.0000 1.0000
vn 0.0000 -1.0000 -0.0000
vn 1.0000 0.0000 0.0000
vn 0.0000 1.0000 0.0000
vn -1.0000 0.0000 0.0000
s 1
f 25/49/19 27/50/19 28/51/19
f 28/51/19 26/52/19 25/49/19
f 29/53/20 30/54/20 32/55/20
f 32/55/20 31/56/20 29/53/20
f 25/57/21 26/58/21 30/59/21
f 30/59/21 29/60/21 25/57/21
f 26/52/22 28/51/22 32/55/22
f 32/55/22 30/54/22 26/52/22
f 28/61/23 27/62/23 31/56/23
f 31/56/23 32/55/23 28/61/23
f 27/63/24 25/64/24 29/53/24
f 29/53/24 31/56/24 27/63/24
o Box004_Mesh.005
v 0.082550 -0.000000 0.031750
v 0.031750 -0.000000 0.031750
v 0.082550 0.050800 0.031750
v 0.031750 0.050800 0.031750
v 0.082550 -0.000000 0.082550
v 0.031750 -0.000000 0.082550
v 0.082550 0.050800 0.082550
v 0.031750 0.050800 0.082550
vt 0.625000 0.968720
vt 0.625000 0.937500
vt 0.593652 0.937500
vt 0.562500 0.937500
vt 0.531255 0.937500
vt 0.531255 0.968720
vt 0.593652 1.000000
vt 0.562500 1.000000
vt 0.562500 0.968720
vt 0.593652 0.968720
vt 0.531255 1.000000
vt 0.562500 1.000000
vt 0.562500 0.968720
vt 0.500000 0.937500
vt 0.500000 0.968720
vt 0.593652 0.968720
vn 0.0000 0.0000 -1.0000
vn 0.0000 -0.0000 1.0000
vn 0.0000 -1.0000 -0.0000
vn -1.0000 -0.0000 0.0000
vn -0.0000 1.0000 0.0000
vn 1.0000 -0.0000 0.0000
s 1
f 35/65/25 33/66/25 34/67/25
f 38/68/26 37/69/26 39/70/26
f 34/71/27 33/72/27 37/73/27
f 36/74/28 34/67/28 38/68/28
f 35/75/29 36/76/29 40/77/29
f 33/78/30 35/79/30 39/70/30
f 35/65/25 34/67/25 36/74/25
f 38/68/26 39/70/26 40/77/26
f 34/71/27 37/73/27 38/80/27
f 36/74/28 38/68/28 40/77/28
f 35/75/29 40/77/29 39/70/29
f 33/78/30 39/70/30 37/69/30
