# Blender v3.1.2 OBJ File: ''
# www.blender.org
o Witch_Mesh.006
v -0.101600 -0.127000 0.101600
v 0.101600 -0.127000 0.101600
v -0.101600 -0.127000 -0.101600
v 0.101600 -0.127000 -0.101600
v -0.101600 0.127000 0.101600
v 0.101600 0.127000 0.101600
v -0.101600 0.127000 -0.101600
v 0.101600 0.127000 -0.101600
v -0.106515 -0.647287 -0.079886
v 0.106515 -0.647287 -0.079886
v -0.106515 -0.114713 -0.079886
v 0.106515 -0.114713 -0.079886
v -0.106515 -0.647287 0.079886
v 0.106515 -0.647287 0.079886
v -0.106515 -0.114713 0.079886
v 0.106515 -0.114713 0.079886
v -0.203200 -0.345397 0.083338
v -0.101600 -0.345397 0.083338
v -0.203200 -0.201713 -0.060346
v -0.101600 -0.201713 -0.060346
v -0.203200 -0.273555 0.155180
v -0.101600 -0.273555 0.155180
v -0.203200 -0.129871 0.011496
v -0.101600 -0.129871 0.011496
v -0.101600 -0.345397 0.083338
v 0.101600 -0.345397 0.083338
v -0.101600 -0.273555 0.011496
v 0.101600 -0.273555 0.011496
v -0.101600 -0.273555 0.155180
v 0.101600 -0.273555 0.155180
v -0.101600 -0.201713 0.083338
v 0.101600 -0.201713 0.083338
v 0.101600 -0.345397 0.083338
v 0.203200 -0.345397 0.083338
v 0.101600 -0.201713 -0.060346
v 0.203200 -0.201713 -0.060346
v 0.101600 -0.273555 0.155180
v 0.203200 -0.273555 0.155180
v 0.101600 -0.129871 0.011496
v 0.203200 -0.129871 0.011496
v 0.000000 -0.736600 0.050800
v 0.101600 -0.736600 0.050800
v 0.000000 -0.736600 -0.050800
v 0.101600 -0.736600 -0.050800
v 0.000000 -0.431800 0.050800
v 0.101600 -0.431800 0.050800
v 0.000000 -0.431800 -0.050800
v 0.101600 -0.431800 -0.050800
v -0.101600 -0.736600 0.050800
v 0.000000 -0.736600 0.050800
v -0.101600 -0.736600 -0.050800
v 0.000000 -0.736600 -0.050800
v -0.101600 -0.431800 0.050800
v 0.000000 -0.431800 0.050800
v -0.101600 -0.431800 -0.050800
v 0.000000 -0.431800 -0.050800
v -0.101600 -0.431800 0.076200
v 0.101600 -0.431800 0.076200
v -0.101600 -0.431800 -0.076200
v 0.101600 -0.431800 -0.076200
v -0.101600 -0.127000 0.076200
v 0.101600 -0.127000 0.076200
v -0.101600 -0.127000 -0.076200
v 0.101600 -0.127000 -0.076200
v -0.025400 -0.152400 0.152400
v 0.025400 -0.152400 0.152400
v -0.025400 -0.152400 0.101600
v 0.025400 -0.152400 0.101600
v -0.025400 -0.050800 0.152400
v 0.025400 -0.050800 0.152400
v -0.025400 -0.050800 0.101600
v 0.025400 -0.050800 0.101600
v -0.127000 0.078033 -0.127000
v 0.127000 0.078033 -0.127000
v -0.127000 0.128833 -0.127000
v 0.127000 0.128833 -0.127000
v -0.127000 0.078033 0.127000
v 0.127000 0.078033 0.127000
v -0.127000 0.128833 0.127000
v 0.127000 0.128833 0.127000
v -0.088900 0.112664 -0.090887
v 0.088900 0.112664 -0.090887
v -0.088900 0.213877 -0.099742
v 0.088900 0.213877 -0.099742
v -0.088900 0.128160 0.086237
v 0.088900 0.128160 0.086237
v -0.088900 0.229373 0.077382
v 0.088900 0.229373 0.077382
v -0.050800 0.208467 -0.058394
v 0.050800 0.208467 -0.058394
v -0.050800 0.308523 -0.076036
v 0.050800 0.308523 -0.076036
v -0.050800 0.226110 0.041663
v 0.050800 0.226110 0.041663
v -0.050800 0.326166 0.024020
v 0.050800 0.326166 0.024020
v -0.012700 0.312584 -0.038675
v 0.012700 0.312584 -0.038675
v -0.012700 0.361653 -0.051823
v 0.012700 0.361653 -0.051823
v -0.012700 0.319158 -0.014140
v 0.012700 0.319158 -0.014140
v -0.012700 0.368227 -0.027288
v 0.012700 0.368227 -0.027288
v 0.006370 -0.120630 0.152420
v 0.019030 -0.120630 0.152420
v 0.006370 -0.107970 0.152420
v 0.019030 -0.107970 0.152420
v 0.006370 -0.120630 0.165080
v 0.019030 -0.120630 0.165080
v 0.006370 -0.107970 0.165080
v 0.019030 -0.107970 0.165080
vt 0.125000 1.000000
vt 0.187500 0.937500
vt 0.125000 0.937500
vt 0.125000 0.937500
vt 0.062500 1.000000
vt 0.062500 0.937500
vt 0.125000 0.859510
vt 0.062500 0.859510
vt 0.187500 0.859510
vt 0.250000 0.859510
vt 0.187500 0.937500
vt 0.000000 0.937500
vt 0.000000 0.859510
vt 0.218750 0.656250
vt 0.156250 0.500000
vt 0.218750 0.500000
vt 0.109244 0.500000
vt 0.046955 0.656250
vt 0.046955 0.500000
vt 0.156250 0.703134
vt 0.109244 0.656250
vt 0.109244 0.703134
vt 0.156250 0.656250
vt 0.046955 0.703134
vt 0.109244 0.656250
vt 0.109244 0.703134
vt 0.000000 0.500000
vt 0.000000 0.656250
vt 0.468750 0.796876
vt 0.437500 0.734353
vt 0.468750 0.734353
vt 0.406250 0.734353
vt 0.375000 0.796876
vt 0.375000 0.734353
vt 0.437500 0.825000
vt 0.406250 0.796876
vt 0.406250 0.825000
vt 0.437500 0.796876
vt 0.375000 0.825000
vt 0.406250 0.796876
vt 0.406250 0.825000
vt 0.343750 0.734353
vt 0.343750 0.796876
vt 0.500000 0.671853
vt 0.437500 0.640689
vt 0.500000 0.640689
vt 0.406250 0.640689
vt 0.343750 0.671853
vt 0.343750 0.640689
vt 0.468750 0.700000
vt 0.406250 0.671853
vt 0.406250 0.700000
vt 0.437500 0.671853
vt 0.343750 0.700000
vt 0.406250 0.671853
vt 0.406250 0.700000
vt 0.312500 0.640689
vt 0.312500 0.671853
vt 0.468750 0.796876
vt 0.437500 0.734353
vt 0.468750 0.734353
vt 0.406250 0.734353
vt 0.375000 0.796876
vt 0.375000 0.734353
vt 0.437500 0.825000
vt 0.406250 0.796876
vt 0.406250 0.825000
vt 0.437500 0.796876
vt 0.375000 0.825000
vt 0.406250 0.796876
vt 0.406250 0.825000
vt 0.343750 0.734353
vt 0.343750 0.796876
vt 0.062500 0.828005
vt 0.093750 0.796843
vt 0.062500 0.796843
vt 0.062500 0.796843
vt 0.031250 0.828005
vt 0.031250 0.796843
vt 0.062500 0.703183
vt 0.031250 0.703183
vt 0.093750 0.703183
vt 0.125000 0.703183
vt 0.093750 0.796843
vt 0.000000 0.796843
vt 0.000000 0.703183
vt 0.062500 0.828005
vt 0.093750 0.796843
vt 0.062500 0.796843
vt 0.062500 0.796843
vt 0.031250 0.828005
vt 0.031250 0.796843
vt 0.062500 0.703183
vt 0.031250 0.703183
vt 0.093750 0.703183
vt 0.125000 0.703183
vt 0.093750 0.796843
vt 0.000000 0.796843
vt 0.000000 0.703183
vt 0.234344 0.843750
vt 0.312450 0.796913
vt 0.234344 0.796913
vt 0.234344 0.796913
vt 0.171889 0.843750
vt 0.171889 0.796913
vt 0.234344 0.703115
vt 0.171889 0.703115
vt 0.281250 0.703115
vt 0.343750 0.703115
vt 0.281250 0.796913
vt 0.125000 0.796913
vt 0.125000 0.703115
vt 0.218750 1.000000
vt 0.234390 0.984368
vt 0.218750 0.984368
vt 0.218750 0.984368
vt 0.203128 1.000000
vt 0.203128 0.984368
vt 0.218750 0.953218
vt 0.203128 0.953218
vt 0.234390 0.953218
vt 0.250000 0.953218
vt 0.234390 0.984368
vt 0.187504 0.984368
vt 0.187504 0.953218
vt 0.312500 0.421840
vt 0.231601 0.406348
vt 0.312500 0.406348
vt 0.156275 0.406348
vt 0.078194 0.421840
vt 0.078194 0.406348
vt 0.231601 0.500000
vt 0.156275 0.421840
vt 0.156275 0.500000
vt 0.231601 0.421840
vt 0.078194 0.500000
vt 0.156275 0.421840
vt 0.156275 0.500000
vt 0.000000 0.406348
vt 0.000000 0.421840
vt 0.212500 0.351607
vt 0.162500 0.320453
vt 0.212500 0.320453
vt 0.109211 0.320453
vt 0.054723 0.351607
vt 0.054723 0.320453
vt 0.162500 0.406202
vt 0.109211 0.351607
vt 0.109211 0.406202
vt 0.162500 0.351607
vt 0.054723 0.406202
vt 0.109211 0.351607
vt 0.109211 0.406202
vt 0.000000 0.320453
vt 0.000000 0.351607
vt 0.125000 0.289074
vt 0.093709 0.262500
vt 0.125000 0.262500
vt 0.062500 0.262500
vt 0.031263 0.289074
vt 0.031263 0.262500
vt 0.093709 0.320224
vt 0.062500 0.289074
vt 0.062500 0.320224
vt 0.093709 0.289074
vt 0.031263 0.320224
vt 0.062500 0.289074
vt 0.062500 0.320224
vt 0.000000 0.262500
vt 0.000000 0.289074
vt 0.031219 0.250000
vt 0.023447 0.234510
vt 0.031219 0.234510
vt 0.015622 0.234510
vt 0.007872 0.250000
vt 0.007872 0.234510
vt 0.023447 0.257555
vt 0.015622 0.250000
vt 0.015622 0.257555
vt 0.015622 0.250000
vt 0.007872 0.257555
vt 0.015622 0.257555
vt 0.000000 0.234510
vt 0.000000 0.250000
vt 0.031203 0.992143
vt 0.023434 0.984439
vt 0.031203 0.984439
vt 0.015653 0.984439
vt 0.007818 0.992143
vt 0.007818 0.984439
vt 0.023434 1.000000
vt 0.015653 0.992143
vt 0.015649 1.000000
vt 0.023434 0.992143
vt 0.007820 1.000000
vt 0.015653 0.992143
vt 0.015649 1.000000
vt 0.000000 0.984439
vt 0.000000 0.992143
vt 0.187500 1.000000
vt 0.125000 1.000000
vt 0.250000 0.937500
vt 0.156250 0.656250
vt 0.437500 0.796876
vt 0.468750 0.671853
vt 0.437500 0.796876
vt 0.093750 0.828005
vt 0.062500 0.828005
vt 0.125000 0.796843
vt 0.093750 0.828005
vt 0.062500 0.828005
vt 0.125000 0.796843
vt 0.312500 0.843750
vt 0.234344 0.843750
vt 0.343750 0.796913
vt 0.234390 1.000000
vt 0.218750 1.000000
vt 0.250000 0.984368
vt 0.231601 0.421840
vt 0.162500 0.351607
vt 0.093709 0.289074
vt 0.023447 0.250000
vt 0.023447 0.250000
vt 0.023434 0.992143
vn 0.0000 -1.0000 0.0000
vn 0.0000 1.0000 0.0000
vn 0.0000 0.0000 1.0000
vn 1.0000 -0.0000 0.0000
vn 0.0000 -0.0000 -1.0000
vn -1.0000 0.0000 0.0000
vn 0.0000 -0.7071 -0.7071
vn 0.0000 0.7071 0.7071
vn 0.0000 -0.7071 0.7071
vn 0.0000 0.7071 -0.7071
vn 0.0000 -0.0872 -0.9962
vn 0.0000 0.0872 0.9962
vn 0.0000 -0.9962 0.0872
vn 0.0000 0.9962 -0.0872
vn 0.0000 -0.1736 -0.9848
vn 0.0000 0.1736 0.9848
vn 0.0000 -0.9848 0.1736
vn 0.0000 0.9848 -0.1736
vn 0.0000 -0.2588 -0.9659
vn 0.0000 0.2588 0.9659
vn 0.0000 -0.9659 0.2588
vn 0.0000 0.9659 -0.2588
s 1
f 3/1/1 2/2/1 1/3/1
f 6/4/2 7/5/2 5/6/2
f 2/7/3 5/6/3 1/8/3
f 4/9/4 6/4/4 2/7/4
f 3/10/5 8/11/5 4/9/5
f 1/8/6 7/12/6 3/13/6
f 11/14/5 10/15/5 9/16/5
f 14/17/3 15/18/3 13/19/3
f 10/20/1 13/21/1 9/22/1
f 12/23/4 14/17/4 10/15/4
f 11/24/2 16/25/2 12/26/2
f 9/27/6 15/18/6 11/28/6
f 19/29/7 18/30/7 17/31/7
f 22/32/8 23/33/8 21/34/8
f 18/35/9 21/36/9 17/37/9
f 20/38/4 22/32/4 18/30/4
f 19/39/10 24/40/10 20/41/10
f 17/42/6 23/33/6 19/43/6
f 27/44/7 26/45/7 25/46/7
f 30/47/8 31/48/8 29/49/8
f 26/50/9 29/51/9 25/52/9
f 28/53/4 30/47/4 26/45/4
f 27/54/10 32/55/10 28/56/10
f 25/57/6 31/48/6 27/58/6
f 35/59/7 34/60/7 33/61/7
f 38/62/8 39/63/8 37/64/8
f 34/65/9 37/66/9 33/67/9
f 36/68/4 38/62/4 34/60/4
f 35/69/10 40/70/10 36/71/10
f 33/72/6 39/63/6 35/73/6
f 43/74/1 42/75/1 41/76/1
f 46/77/2 47/78/2 45/79/2
f 42/80/3 45/79/3 41/81/3
f 44/82/4 46/77/4 42/80/4
f 43/83/5 48/84/5 44/82/5
f 41/81/6 47/85/6 43/86/6
f 51/87/1 50/88/1 49/89/1
f 54/90/2 55/91/2 53/92/2
f 50/93/3 53/92/3 49/94/3
f 52/95/4 54/90/4 50/93/4
f 51/96/5 56/97/5 52/95/5
f 49/94/6 55/98/6 51/99/6
f 59/100/1 58/101/1 57/102/1
f 62/103/2 63/104/2 61/105/2
f 58/106/3 61/105/3 57/107/3
f 60/108/4 62/103/4 58/106/4
f 59/109/5 64/110/5 60/108/5
f 57/107/6 63/111/6 59/112/6
f 67/113/1 66/114/1 65/115/1
f 70/116/2 71/117/2 69/118/2
f 66/119/3 69/118/3 65/120/3
f 68/121/4 70/116/4 66/119/4
f 67/122/5 72/123/5 68/121/5
f 65/120/6 71/124/6 67/125/6
f 75/126/5 74/127/5 73/128/5
f 78/129/3 79/130/3 77/131/3
f 74/132/1 77/133/1 73/134/1
f 76/135/4 78/129/4 74/127/4
f 75/136/2 80/137/2 76/138/2
f 73/139/6 79/130/6 75/140/6
f 83/141/11 82/142/11 81/143/11
f 86/144/12 87/145/12 85/146/12
f 82/147/13 85/148/13 81/149/13
f 84/150/4 86/144/4 82/142/4
f 83/151/14 88/152/14 84/153/14
f 81/154/6 87/145/6 83/155/6
f 91/156/15 90/157/15 89/158/15
f 94/159/16 95/160/16 93/161/16
f 90/162/17 93/163/17 89/164/17
f 92/165/4 94/159/4 90/157/4
f 91/166/18 96/167/18 92/168/18
f 89/169/6 95/160/6 91/170/6
f 99/171/19 98/172/19 97/173/19
f 102/174/20 103/175/20 101/176/20
f 98/177/21 101/178/21 97/179/21
f 98/172/4 104/180/4 102/174/4
f 99/181/22 104/180/22 100/182/22
f 97/183/6 103/175/6 99/184/6
f 107/185/5 106/186/5 105/187/5
f 110/188/3 111/189/3 109/190/3
f 106/191/1 109/192/1 105/193/1
f 108/194/4 110/188/4 106/186/4
f 107/195/2 112/196/2 108/197/2
f 105/198/6 111/189/6 107/199/6
f 3/1/1 4/200/1 2/2/1
f 6/4/2 8/201/2 7/5/2
f 2/7/3 6/4/3 5/6/3
f 4/9/4 8/11/4 6/4/4
f 3/10/5 7/202/5 8/11/5
f 1/8/6 5/6/6 7/12/6
f 11/14/5 12/23/5 10/15/5
f 14/17/3 16/25/3 15/18/3
f 10/20/1 14/203/1 13/21/1
f 12/23/4 16/25/4 14/17/4
f 11/24/2 15/18/2 16/25/2
f 9/27/6 13/19/6 15/18/6
f 19/29/7 20/38/7 18/30/7
f 22/32/8 24/40/8 23/33/8
f 18/35/9 22/204/9 21/36/9
f 20/38/4 24/40/4 22/32/4
f 19/39/10 23/33/10 24/40/10
f 17/42/6 21/34/6 23/33/6
f 27/44/7 28/53/7 26/45/7
f 30/47/8 32/55/8 31/48/8
f 26/50/9 30/205/9 29/51/9
f 28/53/4 32/55/4 30/47/4
f 27/54/10 31/48/10 32/55/10
f 25/57/6 29/49/6 31/48/6
f 35/59/7 36/68/7 34/60/7
f 38/62/8 40/70/8 39/63/8
f 34/65/9 38/206/9 37/66/9
f 36/68/4 40/70/4 38/62/4
f 35/69/10 39/63/10 40/70/10
f 33/72/6 37/64/6 39/63/6
f 43/74/1 44/207/1 42/75/1
f 46/77/2 48/208/2 47/78/2
f 42/80/3 46/77/3 45/79/3
f 44/82/4 48/84/4 46/77/4
f 43/83/5 47/209/5 48/84/5
f 41/81/6 45/79/6 47/85/6
f 51/87/1 52/210/1 50/88/1
f 54/90/2 56/211/2 55/91/2
f 50/93/3 54/90/3 53/92/3
f 52/95/4 56/97/4 54/90/4
f 51/96/5 55/212/5 56/97/5
f 49/94/6 53/92/6 55/98/6
f 59/100/1 60/213/1 58/101/1
f 62/103/2 64/214/2 63/104/2
f 58/106/3 62/103/3 61/105/3
f 60/108/4 64/110/4 62/103/4
f 59/109/5 63/215/5 64/110/5
f 57/107/6 61/105/6 63/111/6
f 67/113/1 68/216/1 66/114/1
f 70/116/2 72/217/2 71/117/2
f 66/119/3 70/116/3 69/118/3
f 68/121/4 72/123/4 70/116/4
f 67/122/5 71/218/5 72/123/5
f 65/120/6 69/118/6 71/124/6
f 75/126/5 76/135/5 74/127/5
f 78/129/3 80/137/3 79/130/3
f 74/132/1 78/219/1 77/133/1
f 76/135/4 80/137/4 78/129/4
f 75/136/2 79/130/2 80/137/2
f 73/139/6 77/131/6 79/130/6
f 83/141/11 84/150/11 82/142/11
f 86/144/12 88/152/12 87/145/12
f 82/147/13 86/220/13 85/148/13
f 84/150/4 88/152/4 86/144/4
f 83/151/14 87/145/14 88/152/14
f 81/154/6 85/146/6 87/145/6
f 91/156/15 92/165/15 90/157/15
f 94/159/16 96/167/16 95/160/16
f 90/162/17 94/221/17 93/163/17
f 92/165/4 96/167/4 94/159/4
f 91/166/18 95/160/18 96/167/18
f 89/169/6 93/161/6 95/160/6
f 99/171/19 100/222/19 98/172/19
f 102/174/20 104/180/20 103/175/20
f 98/177/21 102/223/21 101/178/21
f 98/172/4 100/222/4 104/180/4
f 99/181/22 103/175/22 104/180/22
f 97/183/6 101/176/6 103/175/6
f 107/185/5 108/194/5 106/186/5
f 110/188/3 112/196/3 111/189/3
f 106/191/1 110/224/1 109/192/1
f 108/194/4 112/196/4 110/188/4
f 107/195/2 111/189/2 112/196/2
f 105/198/6 109/190/6 111/189/6
