# Blender v3.1.2 OBJ File: ''
# www.blender.org
o Zombie_Villager_Mesh
v -0.101600 0.177800 0.074810
v 0.101600 0.177800 0.074810
v -0.101600 0.177800 -0.128390
v 0.101600 0.177800 -0.128390
v -0.101600 0.431800 0.074810
v 0.101600 0.431800 0.074810
v -0.101600 0.431800 -0.128390
v 0.101600 0.431800 -0.128390
v -0.106515 -0.342487 -0.106676
v 0.106515 -0.342487 -0.106676
v -0.106515 0.190087 -0.106676
v 0.106515 0.190087 -0.106676
v -0.106515 -0.342487 0.053096
v 0.106515 -0.342487 0.053096
v -0.106515 0.190087 0.053096
v 0.106515 0.190087 0.053096
v 0.000000 -0.431800 0.024010
v 0.101600 -0.431800 0.024010
v 0.000000 -0.431800 -0.077590
v 0.101600 -0.431800 -0.077590
v 0.000000 -0.127000 0.024010
v 0.101600 -0.127000 0.024010
v 0.000000 -0.127000 -0.077590
v 0.101600 -0.127000 -0.077590
v -0.101600 -0.431800 0.024010
v 0.000000 -0.431800 0.024010
v -0.101600 -0.431800 -0.077590
v 0.000000 -0.431800 -0.077590
v -0.101600 -0.127000 0.024010
v 0.000000 -0.127000 0.024010
v -0.101600 -0.127000 -0.077590
v 0.000000 -0.127000 -0.077590
v -0.101600 -0.127000 0.049410
v 0.101600 -0.127000 0.049410
v -0.101600 -0.127000 -0.102990
v 0.101600 -0.127000 -0.102990
v -0.101600 0.177800 0.049410
v 0.101600 0.177800 0.049410
v -0.101600 0.177800 -0.102990
v 0.101600 0.177800 -0.102990
v -0.025400 0.152400 0.125610
v 0.025400 0.152400 0.125610
v -0.025400 0.152400 0.074810
v 0.025400 0.152400 0.074810
v -0.025400 0.254000 0.125610
v 0.025400 0.254000 0.125610
v -0.025400 0.254000 0.074810
v 0.025400 0.254000 0.074810
v 0.203200 0.190500 0.254000
v 0.101600 0.190500 0.254000
v 0.203200 0.088900 0.254000
v 0.101600 0.088900 0.254000
v 0.203200 0.190500 -0.050800
v 0.101600 0.190500 -0.050800
v 0.203200 0.088900 -0.050800
v 0.101600 0.088900 -0.050800
v -0.203200 0.190500 0.254000
v -0.101600 0.190500 0.254000
v -0.203200 0.088900 0.254000
v -0.101600 0.088900 0.254000
v -0.203200 0.190500 -0.050800
v -0.101600 0.190500 -0.050800
v -0.203200 0.088900 -0.050800
v -0.101600 0.088900 -0.050800
vt 0.250000 1.000000
vt 0.375000 0.875000
vt 0.250000 0.875000
vt 0.250000 0.875000
vt 0.125000 1.000000
vt 0.125000 0.875000
vt 0.250000 0.719021
vt 0.125000 0.719021
vt 0.375000 0.719021
vt 0.500000 0.719021
vt 0.375000 0.875000
vt 0.000000 0.875000
vt 0.000000 0.719021
vt 0.437500 0.312500
vt 0.312500 0.000000
vt 0.437500 0.000000
vt 0.218488 -0.000000
vt 0.093911 0.312500
vt 0.093911 0.000000
vt 0.312500 0.406268
vt 0.218488 0.312500
vt 0.218488 0.406268
vt 0.312500 0.312500
vt 0.093911 0.406268
vt 0.218488 0.312500
vt 0.218488 0.406268
vt 0.000000 0.000000
vt 0.000000 0.312500
vt 0.125000 0.656009
vt 0.187500 0.593686
vt 0.125000 0.593686
vt 0.125000 0.593686
vt 0.062500 0.656009
vt 0.062500 0.593686
vt 0.125000 0.406365
vt 0.062500 0.406365
vt 0.187500 0.406365
vt 0.250000 0.406365
vt 0.187500 0.593686
vt 0.000000 0.593686
vt 0.000000 0.406365
vt 0.125000 0.656009
vt 0.187500 0.593686
vt 0.125000 0.593686
vt 0.125000 0.593686
vt 0.062500 0.656009
vt 0.062500 0.593686
vt 0.125000 0.406365
vt 0.062500 0.406365
vt 0.187500 0.406365
vt 0.250000 0.406365
vt 0.187500 0.593686
vt 0.000000 0.593686
vt 0.000000 0.406365
vt 0.468687 0.687500
vt 0.624900 0.593826
vt 0.468687 0.593826
vt 0.468687 0.593826
vt 0.343778 0.687500
vt 0.343778 0.593826
vt 0.468687 0.406230
vt 0.343778 0.406230
vt 0.562500 0.406230
vt 0.687500 0.406230
vt 0.562500 0.593826
vt 0.250000 0.593826
vt 0.250000 0.406230
vt 0.437500 1.000000
vt 0.468780 0.968736
vt 0.437500 0.968736
vt 0.437500 0.968736
vt 0.406256 1.000000
vt 0.406256 0.968736
vt 0.437500 0.906437
vt 0.406256 0.906437
vt 0.468780 0.906437
vt 0.500000 0.906437
vt 0.468780 0.968736
vt 0.375008 0.968736
vt 0.375008 0.906437
vt 0.874644 0.343760
vt 0.812901 0.405550
vt 0.812901 0.343760
vt 0.750149 0.405550
vt 0.812901 0.343760
vt 0.750149 0.343760
vt 0.812901 0.156911
vt 0.750149 0.156911
vt 0.874644 0.156911
vt 0.874644 0.343760
vt 0.937649 0.156911
vt 0.687649 0.343760
vt 0.687649 0.156911
vt 0.812901 0.405550
vt 0.874644 0.343760
vt 0.812901 0.343760
vt 0.812901 0.343760
vt 0.750149 0.405550
vt 0.750149 0.343760
vt 0.812901 0.156911
vt 0.750149 0.156911
vt 0.874644 0.156911
vt 0.937649 0.156911
vt 0.874644 0.343760
vt 0.687649 0.343760
vt 0.687649 0.156911
vt 0.375000 1.000000
vt 0.250000 1.000000
vt 0.500000 0.875000
vt 0.312500 0.312500
vt 0.187500 0.656009
vt 0.125000 0.656009
vt 0.250000 0.593686
vt 0.187500 0.656009
vt 0.125000 0.656009
vt 0.250000 0.593686
vt 0.625000 0.687500
vt 0.468687 0.687500
vt 0.687500 0.593826
vt 0.468780 1.000000
vt 0.437500 1.000000
vt 0.500000 0.968736
vt 0.874644 0.405550
vt 0.812901 0.405550
vt 0.937649 0.343760
vt 0.874644 0.405550
vt 0.812901 0.405550
vt 0.937649 0.343760
vn 0.0000 -1.0000 0.0000
vn 0.0000 1.0000 0.0000
vn 0.0000 0.0000 1.0000
vn 1.0000 0.0000 0.0000
vn 0.0000 0.0000 -1.0000
vn -1.0000 0.0000 0.0000
s 1
f 3/1/1 2/2/1 1/3/1
f 6/4/2 7/5/2 5/6/2
f 2/7/3 5/6/3 1/8/3
f 4/9/4 6/4/4 2/7/4
f 3/10/5 8/11/5 4/9/5
f 1/8/6 7/12/6 3/13/6
f 11/14/5 10/15/5 9/16/5
f 14/17/3 15/18/3 13/19/3
f 10/20/1 13/21/1 9/22/1
f 12/23/4 14/17/4 10/15/4
f 11/24/2 16/25/2 12/26/2
f 9/27/6 15/18/6 11/28/6
f 19/29/1 18/30/1 17/31/1
f 22/32/2 23/33/2 21/34/2
f 18/35/3 21/34/3 17/36/3
f 20/37/4 22/32/4 18/35/4
f 19/38/5 24/39/5 20/37/5
f 17/36/6 23/40/6 19/41/6
f 27/42/1 26/43/1 25/44/1
f 30/45/2 31/46/2 29/47/2
f 26/48/3 29/47/3 25/49/3
f 28/50/4 30/45/4 26/48/4
f 27/51/5 32/52/5 28/50/5
f 25/49/6 31/53/6 27/54/6
f 35/55/1 34/56/1 33/57/1
f 38/58/2 39/59/2 37/60/2
f 34/61/3 37/60/3 33/62/3
f 36/63/4 38/58/4 34/61/4
f 35/64/5 40/65/5 36/63/5
f 33/62/6 39/66/6 35/67/6
f 43/68/1 42/69/1 41/70/1
f 46/71/2 47/72/2 45/73/2
f 42/74/3 45/73/3 41/75/3
f 44/76/4 46/71/4 42/74/4
f 43/77/5 48/78/5 44/76/5
f 41/75/6 47/79/6 43/80/6
f 50/81/3 51/82/3 49/83/3
f 55/84/5 54/85/5 53/86/5
f 53/86/2 50/87/2 49/88/2
f 54/85/6 52/89/6 50/87/6
f 56/90/1 51/91/1 52/89/1
f 55/92/4 49/88/4 51/93/4
f 59/94/3 58/95/3 57/96/3
f 62/97/5 63/98/5 61/99/5
f 58/100/2 61/99/2 57/101/2
f 60/102/4 62/97/4 58/100/4
f 59/103/1 64/104/1 60/102/1
f 57/101/6 63/105/6 59/106/6
f 3/1/1 4/107/1 2/2/1
f 6/4/2 8/108/2 7/5/2
f 2/7/3 6/4/3 5/6/3
f 4/9/4 8/11/4 6/4/4
f 3/10/5 7/109/5 8/11/5
f 1/8/6 5/6/6 7/12/6
f 11/14/5 12/23/5 10/15/5
f 14/17/3 16/25/3 15/18/3
f 10/20/1 14/110/1 13/21/1
f 12/23/4 16/25/4 14/17/4
f 11/24/2 15/18/2 16/25/2
f 9/27/6 13/19/6 15/18/6
f 19/29/1 20/111/1 18/30/1
f 22/32/2 24/112/2 23/33/2
f 18/35/3 22/32/3 21/34/3
f 20/37/4 24/39/4 22/32/4
f 19/38/5 23/113/5 24/39/5
f 17/36/6 21/34/6 23/40/6
f 27/42/1 28/114/1 26/43/1
f 30/45/2 32/115/2 31/46/2
f 26/48/3 30/45/3 29/47/3
f 28/50/4 32/52/4 30/45/4
f 27/51/5 31/116/5 32/52/5
f 25/49/6 29/47/6 31/53/6
f 35/55/1 36/117/1 34/56/1
f 38/58/2 40/118/2 39/59/2
f 34/61/3 38/58/3 37/60/3
f 36/63/4 40/65/4 38/58/4
f 35/64/5 39/119/5 40/65/5
f 33/62/6 37/60/6 39/66/6
f 43/68/1 44/120/1 42/69/1
f 46/71/2 48/121/2 47/72/2
f 42/74/3 46/71/3 45/73/3
f 44/76/4 48/78/4 46/71/4
f 43/77/5 47/122/5 48/78/5
f 41/75/6 45/73/6 47/79/6
f 50/81/3 52/123/3 51/82/3
f 55/84/5 56/124/5 54/85/5
f 53/86/2 54/85/2 50/87/2
f 54/85/6 56/90/6 52/89/6
f 56/90/1 55/125/1 51/91/1
f 55/92/4 53/86/4 49/88/4
f 59/94/3 60/126/3 58/95/3
f 62/97/5 64/127/5 63/98/5
f 58/100/2 62/97/2 61/99/2
f 60/102/4 64/104/4 62/97/4
f 59/103/1 63/128/1 64/104/1
f 57/101/6 61/99/6 63/105/6
